HIERARCHY
ROOT Hips
{
    OFFSET 0.000000 0.000000 0.000000
    CHANNELS 6 Xposition Yposition Zposition Zrotation Xrotation Yrotation
    JOINT Spine
    {
        OFFSET -0.000000 7.570525 0.000000
        CHANNELS 3 Zrotation Xrotation Yrotation
        JOINT Spine1
        {
            OFFSET -0.000000 22.788599 0.000000
            CHANNELS 3 Zrotation Xrotation Yrotation
            JOINT Neck
            {
                OFFSET -0.000000 22.695009 2.063183
                CHANNELS 3 Zrotation Xrotation Yrotation
                JOINT Head
                {
                    OFFSET -0.000000 12.925286 -1.846469
                    CHANNELS 3 Zrotation Xrotation Yrotation
                    End Site
                    {
                        OFFSET -0.000000 23.080868 0.000000
                    }
                }
            }
            JOINT LeftShoulder
            {
                OFFSET 3.700390 21.177364 -0.126673
                CHANNELS 3 Zrotation Xrotation Yrotation
                JOINT LeftArm
                {
                    OFFSET 9.846800 0.000000 0.000000
                    CHANNELS 3 Zrotation Xrotation Yrotation
                    JOINT LeftForeArm
                    {
                        OFFSET 34.583084 0.000000 0.000000
                        CHANNELS 3 Zrotation Xrotation Yrotation
                        JOINT LeftHand
                        {
                            OFFSET 18.297363 0.000000 0.000000
                            CHANNELS 3 Zrotation Xrotation Yrotation
                            End Site
                            {
                                OFFSET 13.848521 0.000000 0.000000
                            }
                        }
                    }
                }
            }
            JOINT RightShoulder
            {
                OFFSET -3.679122 21.177364 -0.126673
                CHANNELS 3 Zrotation Xrotation Yrotation
                JOINT RightArm
                {
                    OFFSET -9.846800 0.000000 0.000000
                    CHANNELS 3 Zrotation Xrotation Yrotation
                    JOINT RightForeArm
                    {
                        OFFSET -34.583084 0.000000 0.000000
                        CHANNELS 3 Zrotation Xrotation Yrotation
                        JOINT RightHand
                        {
                            OFFSET -18.297363 0.000000 0.000000
                            CHANNELS 3 Zrotation Xrotation Yrotation
                            End Site
                            {
                                OFFSET -13.848521 0.000000 0.000000
                            }
                        }
                    }
                }
            }
        }
    }
    JOINT LeftUpLeg
    {
        OFFSET 9.232347 0.000000 0.000000
        CHANNELS 3 Zrotation Xrotation Yrotation
        JOINT LeftLeg
        {
            OFFSET -0.000000 -36.686405 0.000000
            CHANNELS 3 Zrotation Xrotation Yrotation
            JOINT LeftFoot
            {
                OFFSET -0.000000 -39.596695 0.000000
                CHANNELS 3 Zrotation Xrotation Yrotation
                JOINT LeftToeBase
                {
                    OFFSET -0.000000 -6.001025 13.848521
                    CHANNELS 3 Zrotation Xrotation Yrotation
                    End Site
                    {
                        OFFSET -0.000000 0.000000 3.692939
                    }
                }
            }
        }
    }
    JOINT RightUpLeg
    {
        OFFSET -9.232347 0.000000 0.000000
        CHANNELS 3 Zrotation Xrotation Yrotation
        JOINT RightLeg
        {
            OFFSET -0.000000 -36.686405 0.000000
            CHANNELS 3 Zrotation Xrotation Yrotation
            JOINT RightFoot
            {
                OFFSET -0.000000 -39.596695 0.000000
                CHANNELS 3 Zrotation Xrotation Yrotation
                JOINT RightToeBase
                {
                    OFFSET -0.000000 -6.001025 13.848521
                    CHANNELS 3 Zrotation Xrotation Yrotation
                    End Site
                    {
                        OFFSET -0.000000 0.000000 3.692939
                    }
                }
            }
        }
    }
}
MOTION
Frames:    8
Frame Time:    0.008333
-12.927696    90.893593    -16.398144    0.495156    -3.845936    -5.011018    1.909167    2.452493    1.043031    4.255280    10.628639    0.687920    -4.259768    12.707677    5.051084    -3.022524    -8.144216    4.758098    -5.582127    17.269756    6.907089    -53.810585    53.325798    -16.347939    39.790859    -45.445053    -91.176651    -22.503155    -7.490969    4.087553    -0.012229    18.036642    2.844449    40.210449    51.394741    28.026855    -51.325142    -49.272148    78.972366    16.339151    -9.792092    -7.202165    8.847538    -1.716694    1.692979    -12.671514    25.114727    3.130890    -17.095058    1.314359    11.577014    0.000000    0.000000    0.000000    -10.211884    -3.888721    -0.305080    2.640336    21.807545    -2.783917    17.862093    2.473280    -25.921005    0.000000    0.000000    0.000000    
-12.634993    91.310257    -16.523058    0.499475    -3.699603    -4.817566    1.622739    2.625743    0.908017    4.487807    10.128213    0.547403    -4.354570    12.840943    4.903611    -2.375493    -8.110782    4.739838    -5.365571    17.204077    7.153329    -52.846653    54.263416    -16.473228    38.926838    -45.434689    -92.484055    -22.037601    -7.593197    4.542303    -0.364045    17.662214    3.052886    39.361507    52.375256    28.168661    -50.847099    -49.179070    79.764771    17.132788    -9.441014    -6.646745    8.944379    -1.999902    2.651618    -11.550443    25.293728    0.762325    -17.574724    2.194538    10.870351    0.000000    0.000000    0.000000    -10.242152    -3.979230    -0.529336    3.124766    21.825058    -3.420249    17.710794    2.691349    -26.002386    0.000000    0.000000    0.000000    
-12.319610    91.658730    -16.671709    0.509357    -3.449327    -4.687618    1.484493    2.560889    0.803232    4.486317    9.917663    0.447044    -4.240703    12.887231    4.785626    -1.944270    -8.138365    4.702166    -5.108308    17.082977    7.183295    -51.704895    54.958843    -16.548134    37.782894    -45.441998    -94.087914    -21.485157    -7.860160    4.961693    -0.575624    17.448689    3.462352    38.300674    53.251328    28.326397    -50.320522    -49.254902    80.692589    17.155823    -9.282651    -6.433980    9.070723    -2.425330    3.324071    -10.670245    25.583508    -1.742282    -16.758352    2.559812    10.578238    0.000000    0.000000    0.000000    -10.314438    -4.395259    -0.546738    3.344687    22.720528    -2.655620    18.829193    1.748006    -26.088989    0.000000    0.000000    0.000000    
-12.019246    91.895248    -16.775826    0.484296    -3.429193    -4.391107    1.362581    2.578570    0.629420    4.499589    9.832920    0.272923    -4.132489    12.739500    4.681942    -1.411470    -7.793386    4.713329    -4.552777    17.057281    6.781178    -50.871159    54.779228    -16.497362    36.044231    -44.704468    -96.257233    -20.761131    -7.485210    5.474470    -0.843327    17.233709    3.930241    37.205685    54.264172    28.647440    -50.399700    -49.520439    80.892509    17.208124    -9.353086    -6.112035    9.212966    -2.682680    3.628521    -10.090751    25.972816    -3.100458    -15.377909    2.458904    10.597653    0.000000    0.000000    0.000000    -10.056966    -4.435601    -2.803658    2.362300    23.236105    -1.728471    19.237194    2.238270    -24.624691    0.000000    0.000000    0.000000    
-11.706169    92.027054    -16.875973    0.519791    -3.459469    -4.129217    1.173496    2.614583    0.425693    4.494650    9.780247    0.067799    -3.879061    12.776093    4.564250    -1.290626    -7.695727    4.607410    -4.187128    16.926538    6.662305    -49.841740    55.099476    -16.589598    35.677074    -44.703362    -97.118744    -20.783718    -7.314169    5.636667    -1.155491    17.111967    4.465837    35.619125    54.988987    29.489950    -50.697094    -49.755348    80.866989    17.940451    -9.335499    -5.634523    9.249431    -2.838120    3.205710    -9.864846    26.198523    -2.916395    -15.061447    1.763263    11.367027    0.000000    0.000000    0.000000    -10.059342    -4.462914    -2.923059    2.741218    23.721622    -2.694677    19.107121    2.870325    -23.740141    0.000000    0.000000    0.000000    
-11.409141    92.067841    -16.951376    0.570629    -3.622272    -3.954217    0.945096    2.821190    0.391406    4.400361    9.644292    0.043453    -3.533739    12.991842    4.318059    -1.017597    -7.719340    4.389328    -3.529398    16.774702    6.189604    -48.956375    55.281681    -16.661577    34.290741    -44.376476    -98.943039    -20.202963    -7.413095    6.236269    -1.268249    16.875896    4.680329    34.073479    55.434315    30.042347    -48.928295    -49.538136    82.937386    17.374727    -9.220910    -5.843916    9.300097    -2.740625    2.471726    -9.875023    26.354490    -2.735618    -14.888614    0.555155    13.152031    0.000000    0.000000    0.000000    -10.039095    -4.467106    -3.269526    2.480305    24.884178    -1.765992    19.676268    2.639733    -22.962204    0.000000    0.000000    0.000000    
-11.134002    92.027199    -17.014179    0.604980    -3.852537    -3.827128    0.693284    3.022353    0.353473    4.343212    9.553777    0.008894    -3.122560    12.977204    4.152462    -0.926206    -7.282810    4.227317    -2.938452    16.643923    5.725729    -48.104355    55.632744    -16.676250    33.721378    -44.415432    -99.921974    -19.804333    -7.498245    6.421923    -1.459501    16.760431    5.019450    32.508259    54.350426    30.454590    -43.767860    -47.895428    88.529121    15.945886    -8.340636    -7.503373    9.406043    -2.467250    1.430014    -10.197965    26.249302    -1.561513    -14.164374    -0.386293    14.598651    0.000000    0.000000    0.000000    -9.958149    -4.459622    -3.556529    2.268877    26.091803    -0.833846    20.161526    2.261314    -22.356354    0.000000    0.000000    0.000000    
-10.863861    91.914215    -17.057062    0.670867    -4.161709    -3.760247    0.407516    3.212045    0.366599    4.268809    9.574915    0.020478    -3.024895    13.476507    3.861687    -0.430369    -7.647040    4.007583    -2.341035    16.449425    5.238500    -47.090546    55.971153    -16.831387    33.485447    -44.428581    -100.648125    -19.429531    -7.329233    6.958308    -1.748545    16.535511    5.389447    31.745911    54.943142    30.709467    -43.921883    -48.145382    88.660553    16.300827    -8.335072    -6.985520    9.523990    -2.045758    0.557685    -10.537139    26.081333    -0.134697    -12.586258    -1.109989    15.444269    0.000000    0.000000    0.000000    -9.894732    -4.378849    -3.575703    2.307131    27.180191    -0.633986    20.256168    2.046956    -21.546368    0.000000    0.000000    0.000000    
